<svg xmlns="http://www.w3.org/2000/svg" version="1.1" xmlns:xlink="http://www.w3.org/1999/xlink" xmlns:svgjs="http://svgjs.dev/svgjs" width="1600" height="1000" preserveAspectRatio="none" viewBox="0 0 1600 1000"><g clip-path="url(&quot;#SvgjsClipPath1051&quot;)" fill="none"><path d="M38.37 1008.25C48.34 1007.91 58.87 1007.71 66.23 1000.97 73.84 994 76.8 983.43 76.76 973.11 76.72 962.83 73.75 952.24 66.03 945.45 58.66 938.97 48.18 939.07 38.37 939.37 28.97 939.66 19.27 940.72 12.35 947.09 5.18 953.69 2.38 963.39 1.71 973.11 0.98 983.7 0.86 995.62 8.52 1002.96 16.1 1010.23 27.88 1008.61 38.37 1008.25" fill="rgba(132, 94, 194, 1)" stroke="none"></path><path d="M26.37 998.25C36.34 997.91 46.87 997.71 54.23 990.97 61.84 984 64.8 973.43 64.76 963.11 64.72 952.83 61.75 942.24 54.03 935.45 46.66 928.97 36.18 929.07 26.37 929.37 16.97 929.66 7.27 930.72 0.35 937.09-6.82 943.69-9.62 953.39-10.29 963.11-11.02 973.7-11.14 985.62-3.48 992.96 4.1 1000.23 15.88 998.61 26.37 998.25" fill="none" stroke-width="2" stroke="#5a3792"></path><path d="M779.91 1044.75C791.33 1043.75 797.82 1032.43 805.87 1024.28 813.84 1016.21 825.91 1009.66 825.78 998.32 825.65 987.02 813.63 980.56 805.27 972.96 797.54 965.93 790.34 957.22 779.91 956.64 769.07 956.04 759.46 962.52 751.55 969.96 743.33 977.69 736.07 987.05 735.58 998.32 735.07 1010 740.88 1020.83 748.95 1029.28 757.23 1037.95 767.97 1045.8 779.91 1044.75" fill="rgba(132, 94, 194, 1)" stroke="none"></path><path d="M785.91 1055.75C797.33 1054.75 803.82 1043.43 811.87 1035.28 819.84 1027.21 831.91 1020.66 831.78 1009.32 831.65 998.02 819.63 991.56 811.27 983.96 803.54 976.93 796.34 968.22 785.91 967.64 775.07 967.04 765.46 973.52 757.55 980.96 749.33 988.69 742.07 998.05 741.58 1009.32 741.07 1021 746.88 1031.83 754.95 1040.28 763.23 1048.95 773.97 1056.8 785.91 1055.75" fill="none" stroke-width="2" stroke="#5a3792"></path><path d="M370.29 504.69C381.44 504.46 388.25 493.36 395.98 485.33 403.48 477.54 413.35 470.45 413.66 459.64 413.98 448.67 405.6 439.82 397.5 432.43 389.85 425.45 380.64 420.45 370.29 420.07 359.54 419.67 348.94 423.09 340.99 430.34 332.66 437.93 326.36 448.38 326.87 459.64 327.36 470.55 335.95 478.54 343.53 486.4 351.32 494.49 359.06 504.92 370.29 504.69" fill="rgba(132, 94, 194, 1)" stroke="none"></path><path d="M357.29 496.69C368.44 496.46 375.25 485.36 382.98 477.33 390.48 469.54 400.35 462.45 400.66 451.64 400.98 440.67 392.6 431.82 384.5 424.43 376.85 417.45 367.64 412.45 357.29 412.07 346.54 411.67 335.94 415.09 327.99 422.34 319.66 429.93 313.36 440.38 313.87 451.64 314.36 462.55 322.95 470.54 330.53 478.4 338.32 486.49 346.06 496.92 357.29 496.69" fill="none" stroke-width="2" stroke="#5a3792"></path><path d="M132.36 523.29C154.18 524.9 177.31 522.16 193.48 507.42 210.23 492.15 215.64 468.94 216.82 446.3 218.08 422.13 216.59 396.27 200.19 378.47 183.3 360.14 157.18 352.42 132.36 354.62 109.35 356.66 91.53 372.81 75.57 389.51 60.1 405.7 43.92 423.93 44.75 446.3 45.56 468.19 63.17 484.57 79.63 499.03 94.74 512.3 112.3 521.81 132.36 523.29" fill="rgba(132, 94, 194, 1)" stroke="none"></path><path d="M116.36 505.29C138.18 506.9 161.31 504.16 177.48 489.42 194.23 474.15 199.64 450.94 200.82 428.3 202.08 404.13 200.59 378.27 184.19 360.47 167.3 342.14 141.18 334.42 116.36 336.62 93.35 338.66 75.53 354.81 59.57 371.51 44.1 387.7 27.92 405.93 28.75 428.3 29.56 450.19 47.17 466.57 63.63 481.03 78.74 494.3 96.3 503.81 116.36 505.29" fill="none" stroke-width="2" stroke="#5a3792"></path><path d="M1504.72 688.31C1514.41 687.78 1522.64 681.82 1529.13 674.61 1535.23 667.83 1539.29 659.32 1539 650.2 1538.72 641.34 1533.68 633.76 1527.62 627.3 1521.3 620.56 1513.96 613.66 1504.72 613.63 1495.46 613.6 1488.01 620.41 1481.68 627.16 1475.61 633.64 1471.17 641.35 1470.43 650.2 1469.62 659.92 1470.97 670.18 1477.49 677.43 1484.29 684.98 1494.58 688.86 1504.72 688.31" fill="rgba(132, 94, 194, 1)" stroke="none"></path><path d="M1510.72 703.31C1520.41 702.78 1528.64 696.82 1535.13 689.61 1541.23 682.83 1545.29 674.32 1545 665.2 1544.72 656.34 1539.68 648.76 1533.62 642.3 1527.3 635.56 1519.96 628.66 1510.72 628.63 1501.46 628.6 1494.01 635.41 1487.68 642.16 1481.61 648.64 1477.17 656.35 1476.43 665.2 1475.62 674.92 1476.97 685.18 1483.49 692.43 1490.29 699.98 1500.58 703.86 1510.72 703.31" fill="none" stroke-width="2" stroke="#5a3792"></path><path d="M1414.67 203.07C1425.04 203.24 1435.75 202.14 1443.6 195.37 1451.98 188.14 1457.65 177.5 1457.15 166.44 1456.67 155.73 1448.86 147.41 1441.11 140 1433.6 132.82 1425.06 125.96 1414.67 125.86 1404.21 125.76 1394.66 131.67 1387.74 139.51 1381.23 146.88 1379.03 156.61 1378.84 166.44 1378.65 176.51 1379.64 187.23 1386.68 194.43 1393.78 201.69 1404.52 202.9 1414.67 203.07" fill="rgba(132, 94, 194, 1)" stroke="none"></path><path d="M1399.67 191.07C1410.04 191.24 1420.75 190.14 1428.6 183.37 1436.98 176.14 1442.65 165.5 1442.15 154.44 1441.67 143.73 1433.86 135.41 1426.11 128 1418.6 120.82 1410.06 113.96 1399.67 113.86 1389.21 113.76 1379.66 119.67 1372.74 127.51 1366.23 134.88 1364.03 144.61 1363.84 154.44 1363.65 164.51 1364.64 175.23 1371.68 182.43 1378.78 189.69 1389.52 190.9 1399.67 191.07" fill="none" stroke-width="2" stroke="#5a3792"></path></g><defs><clipPath id="SvgjsClipPath1051"><rect width="1600" height="1000" x="0" y="0"></rect></clipPath></defs></svg>